<svg xmlns="http://www.w3.org/2000/svg" width="8.482" height="16.252" viewBox="0 0 8.482 16.252"><defs><style>.a{fill:#be9fe1;}</style></defs><g transform="translate(0)"><path class="a" d="M117.933.233a.353.353,0,0,0-.5.5l7.52,7.521-7.521,7.52a.353.353,0,1,0,.491.508l.009-.009L125.7,8.5a.353.353,0,0,0,0-.5Z" transform="translate(-117.325 -0.129)"/><path class="a" d="M117.8,16.247a.353.353,0,0,1-.25-.6l7.521-7.52L117.551.6a.354.354,0,0,1,.5-.5l7.77,7.77a.353.353,0,0,1,0,.5l-7.77,7.77A.353.353,0,0,1,117.8,16.247Z" transform="translate(-117.443 0)"/></g></svg>