<svg xmlns="http://www.w3.org/2000/svg" width="14.451" height="15.999" viewBox="0 0 14.451 15.999"><g transform="translate(-24.009)"><g transform="translate(24.009)"><g transform="translate(0)"><path d="M38.457,8.591a7.224,7.224,0,0,0-1.812-4.6L37.781,2.9a.258.258,0,0,0-.34-.388l-.017.016L36.289,3.615c-.026-.026-.052-.054-.08-.08a7.189,7.189,0,0,0-4.718-1.98s0,0,0-.006V.516h.774a.258.258,0,0,0,0-.516H30.2a.258.258,0,0,0,0,.516h.774V1.555A7.225,7.225,0,0,0,31.229,16l.191,0A7.224,7.224,0,0,0,38.457,8.591Zm-7.05,6.89a6.709,6.709,0,0,1-.346-13.414c.06,0,.118,0,.178,0a6.709,6.709,0,0,1,.169,13.417Z" transform="translate(-24.009)"/></g></g><g transform="translate(26.84 4.432)"><path d="M116.2,140.712a1.039,1.039,0,0,0-.567.164l-3.4-3.4a.258.258,0,0,0-.365.365l3.418,3.417a1.019,1.019,0,0,0-.129.487,1.038,1.038,0,1,0,1.045-1.032Zm-.012,1.548a.516.516,0,1,1,.516-.516A.516.516,0,0,1,116.184,142.26Z" transform="translate(-111.79 -137.403)"/></g></g></svg>